<mxfile host="app.diagrams.net" modified="2023-09-25T10:10:24.564Z" agent="Mozilla/5.0 (Windows NT 10.0; Win64; x64) AppleWebKit/537.36 (KHTML, like Gecko) Chrome/116.0.0.0 Safari/537.36" etag="iYFeoUfSVH7ywlxvGjEw" version="21.8.2" type="github">
  <diagram id="6a731a19-8d31-9384-78a2-239565b7b9f0" name="Page-1">
    <mxGraphModel dx="1562" dy="830" grid="1" gridSize="10" guides="1" tooltips="1" connect="1" arrows="1" fold="1" page="1" pageScale="1" pageWidth="827" pageHeight="1169" background="none" math="0" shadow="0">
      <root>
        <mxCell id="0" />
        <mxCell id="1" parent="0" />
        <mxCell id="2091" value="" style="rounded=1;whiteSpace=wrap;html=1;strokeColor=none;fillColor=#BAC8D3;fontSize=24;fontColor=#23445D;align=center;opacity=60;flipH=1;" parent="1" vertex="1">
          <mxGeometry x="990" y="290" width="479" height="120" as="geometry" />
        </mxCell>
        <mxCell id="2175" style="edgeStyle=none;rounded=1;html=1;strokeColor=#23445D;endArrow=none;endFill=0;strokeWidth=4;exitX=0.5;exitY=1;exitDx=0;exitDy=0;exitPerimeter=0;" parent="1" source="f8hAHo9c5CAadVZFo8Ym-2258" target="f8hAHo9c5CAadVZFo8Ym-2262" edge="1">
          <mxGeometry relative="1" as="geometry">
            <mxPoint x="1251" y="239.99969639468682" as="sourcePoint" />
            <mxPoint x="1070" y="297.0129791271346" as="targetPoint" />
          </mxGeometry>
        </mxCell>
        <mxCell id="f8hAHo9c5CAadVZFo8Ym-2258" value="SLB负载均衡" style="shape=mxgraph.cisco.servers.communications_server;sketch=0;html=1;pointerEvents=1;dashed=0;fillColor=#036897;strokeColor=#ffffff;strokeWidth=2;verticalLabelPosition=top;verticalAlign=bottom;align=center;outlineConnect=0;labelPosition=center;" vertex="1" parent="1">
          <mxGeometry x="1187" y="175" width="54" height="56" as="geometry" />
        </mxCell>
        <mxCell id="f8hAHo9c5CAadVZFo8Ym-2261" value="Node04" style="shape=mxgraph.cisco.servers.standard_host;sketch=0;html=1;pointerEvents=1;dashed=0;fillColor=#036897;strokeColor=#ffffff;strokeWidth=2;verticalLabelPosition=middle;verticalAlign=middle;align=right;outlineConnect=0;labelPosition=left;flipH=1;" vertex="1" parent="1">
          <mxGeometry x="1330.5" y="320" width="60" height="70" as="geometry" />
        </mxCell>
        <mxCell id="f8hAHo9c5CAadVZFo8Ym-2262" value="Node01" style="shape=mxgraph.cisco.servers.standard_host;sketch=0;html=1;pointerEvents=1;dashed=0;fillColor=#036897;strokeColor=#ffffff;strokeWidth=2;verticalLabelPosition=middle;verticalAlign=middle;align=right;outlineConnect=0;labelPosition=left;flipH=1;" vertex="1" parent="1">
          <mxGeometry x="1037.5" y="320" width="60" height="70" as="geometry" />
        </mxCell>
        <mxCell id="f8hAHo9c5CAadVZFo8Ym-2263" value="Node02&lt;br&gt;" style="shape=mxgraph.cisco.servers.standard_host;sketch=0;html=1;pointerEvents=1;dashed=0;fillColor=#036897;strokeColor=#ffffff;strokeWidth=2;verticalLabelPosition=middle;verticalAlign=middle;align=right;outlineConnect=0;labelPosition=left;flipH=1;" vertex="1" parent="1">
          <mxGeometry x="1147.5" y="320" width="60" height="70" as="geometry" />
        </mxCell>
        <mxCell id="f8hAHo9c5CAadVZFo8Ym-2264" value="Node03" style="shape=mxgraph.cisco.servers.standard_host;sketch=0;html=1;pointerEvents=1;dashed=0;fillColor=#036897;strokeColor=#ffffff;strokeWidth=2;verticalLabelPosition=middle;verticalAlign=middle;align=right;outlineConnect=0;labelPosition=left;flipH=1;" vertex="1" parent="1">
          <mxGeometry x="1240.5" y="320" width="60" height="70" as="geometry" />
        </mxCell>
        <mxCell id="f8hAHo9c5CAadVZFo8Ym-2265" style="edgeStyle=none;rounded=1;html=1;strokeColor=#23445D;endArrow=none;endFill=0;strokeWidth=4;exitX=0.5;exitY=1;exitDx=0;exitDy=0;exitPerimeter=0;" edge="1" parent="1" source="f8hAHo9c5CAadVZFo8Ym-2258" target="f8hAHo9c5CAadVZFo8Ym-2263">
          <mxGeometry relative="1" as="geometry">
            <mxPoint x="1296" y="178.18819156835252" as="sourcePoint" />
            <mxPoint x="1185" y="290.0029791271346" as="targetPoint" />
          </mxGeometry>
        </mxCell>
        <mxCell id="f8hAHo9c5CAadVZFo8Ym-2266" style="edgeStyle=none;rounded=1;html=1;strokeColor=#23445D;endArrow=none;endFill=0;strokeWidth=4;entryX=0.5;entryY=0;entryDx=0;entryDy=0;entryPerimeter=0;exitX=0.5;exitY=1;exitDx=0;exitDy=0;exitPerimeter=0;" edge="1" parent="1" source="f8hAHo9c5CAadVZFo8Ym-2258" target="f8hAHo9c5CAadVZFo8Ym-2264">
          <mxGeometry relative="1" as="geometry">
            <mxPoint x="1220" y="200" as="sourcePoint" />
            <mxPoint x="1090" y="317.0129791271346" as="targetPoint" />
          </mxGeometry>
        </mxCell>
        <mxCell id="f8hAHo9c5CAadVZFo8Ym-2267" style="edgeStyle=none;rounded=1;html=1;strokeColor=#23445D;endArrow=none;endFill=0;strokeWidth=4;exitX=0.5;exitY=1;exitDx=0;exitDy=0;exitPerimeter=0;entryX=1;entryY=0;entryDx=0;entryDy=0;entryPerimeter=0;" edge="1" parent="1" source="f8hAHo9c5CAadVZFo8Ym-2258" target="f8hAHo9c5CAadVZFo8Ym-2261">
          <mxGeometry relative="1" as="geometry">
            <mxPoint x="1238" y="230" as="sourcePoint" />
            <mxPoint x="1100" y="327.0129791271346" as="targetPoint" />
          </mxGeometry>
        </mxCell>
        <mxCell id="f8hAHo9c5CAadVZFo8Ym-2269" style="edgeStyle=none;rounded=1;html=1;strokeColor=#23445D;endArrow=none;endFill=0;strokeWidth=4;entryX=0.5;entryY=1;entryDx=0;entryDy=0;entryPerimeter=0;" edge="1" parent="1" source="f8hAHo9c5CAadVZFo8Ym-2295" target="f8hAHo9c5CAadVZFo8Ym-2262">
          <mxGeometry relative="1" as="geometry">
            <mxPoint x="1020.625" y="570" as="sourcePoint" />
            <mxPoint x="1080" y="307.0129791271346" as="targetPoint" />
          </mxGeometry>
        </mxCell>
        <mxCell id="f8hAHo9c5CAadVZFo8Ym-2270" style="edgeStyle=none;rounded=1;html=1;strokeColor=#23445D;endArrow=none;endFill=0;strokeWidth=4;" edge="1" parent="1" source="f8hAHo9c5CAadVZFo8Ym-2262" target="f8hAHo9c5CAadVZFo8Ym-2299">
          <mxGeometry relative="1" as="geometry">
            <mxPoint x="1798" y="226" as="sourcePoint" />
            <mxPoint x="1377.3347701149423" y="650" as="targetPoint" />
          </mxGeometry>
        </mxCell>
        <mxCell id="f8hAHo9c5CAadVZFo8Ym-2271" style="edgeStyle=none;rounded=1;html=1;strokeColor=#23445D;endArrow=none;endFill=0;strokeWidth=4;" edge="1" parent="1" source="f8hAHo9c5CAadVZFo8Ym-2263" target="f8hAHo9c5CAadVZFo8Ym-2295">
          <mxGeometry relative="1" as="geometry">
            <mxPoint x="1013" y="372.12506388361794" as="sourcePoint" />
            <mxPoint x="1044.0566037735848" y="570" as="targetPoint" />
          </mxGeometry>
        </mxCell>
        <mxCell id="f8hAHo9c5CAadVZFo8Ym-2272" style="edgeStyle=none;rounded=1;html=1;strokeColor=#23445D;endArrow=none;endFill=0;strokeWidth=4;" edge="1" parent="1" source="f8hAHo9c5CAadVZFo8Ym-2264" target="f8hAHo9c5CAadVZFo8Ym-2295">
          <mxGeometry relative="1" as="geometry">
            <mxPoint x="1275" y="350" as="sourcePoint" />
            <mxPoint x="1054.4" y="579.5999999999999" as="targetPoint" />
          </mxGeometry>
        </mxCell>
        <mxCell id="f8hAHo9c5CAadVZFo8Ym-2273" style="edgeStyle=none;rounded=1;html=1;strokeColor=#23445D;endArrow=none;endFill=0;strokeWidth=4;exitX=0.5;exitY=1;exitDx=0;exitDy=0;exitPerimeter=0;" edge="1" parent="1" source="f8hAHo9c5CAadVZFo8Ym-2261" target="f8hAHo9c5CAadVZFo8Ym-2295">
          <mxGeometry relative="1" as="geometry">
            <mxPoint x="1380" y="390" as="sourcePoint" />
            <mxPoint x="1054.4" y="579.5999999999999" as="targetPoint" />
          </mxGeometry>
        </mxCell>
        <mxCell id="f8hAHo9c5CAadVZFo8Ym-2286" style="edgeStyle=none;rounded=1;html=1;strokeColor=#23445D;endArrow=none;endFill=0;strokeWidth=4;" edge="1" parent="1" target="f8hAHo9c5CAadVZFo8Ym-2299">
          <mxGeometry relative="1" as="geometry">
            <mxPoint x="1370" y="385" as="sourcePoint" />
            <mxPoint x="1422.5" y="650" as="targetPoint" />
          </mxGeometry>
        </mxCell>
        <mxCell id="f8hAHo9c5CAadVZFo8Ym-2288" style="edgeStyle=none;rounded=1;html=1;strokeColor=#23445D;endArrow=none;endFill=0;strokeWidth=4;" edge="1" parent="1" source="f8hAHo9c5CAadVZFo8Ym-2263" target="f8hAHo9c5CAadVZFo8Ym-2299">
          <mxGeometry relative="1" as="geometry">
            <mxPoint x="1177" y="400" as="sourcePoint" />
            <mxPoint x="1392.9363905325445" y="650" as="targetPoint" />
          </mxGeometry>
        </mxCell>
        <mxCell id="f8hAHo9c5CAadVZFo8Ym-2291" value="" style="rounded=1;whiteSpace=wrap;html=1;strokeColor=none;fillColor=#BAC8D3;fontSize=24;fontColor=#23445D;align=center;opacity=60;" vertex="1" parent="1">
          <mxGeometry x="750" y="713" width="280" height="120" as="geometry" />
        </mxCell>
        <mxCell id="f8hAHo9c5CAadVZFo8Ym-2292" value="RDS Mysql主" style="shape=mxgraph.cisco.storage.relational_database;sketch=0;html=1;pointerEvents=1;dashed=0;fillColor=#036897;strokeColor=#ffffff;strokeWidth=2;verticalLabelPosition=bottom;verticalAlign=top;align=center;outlineConnect=0;" vertex="1" parent="1">
          <mxGeometry x="787" y="751.5" width="66" height="53" as="geometry" />
        </mxCell>
        <mxCell id="f8hAHo9c5CAadVZFo8Ym-2293" value="RDS Mysql从" style="shape=mxgraph.cisco.storage.relational_database;sketch=0;html=1;pointerEvents=1;dashed=0;fillColor=#036897;strokeColor=#ffffff;strokeWidth=2;verticalLabelPosition=bottom;verticalAlign=top;align=center;outlineConnect=0;" vertex="1" parent="1">
          <mxGeometry x="923" y="751.5" width="66" height="53" as="geometry" />
        </mxCell>
        <mxCell id="f8hAHo9c5CAadVZFo8Ym-2295" value="数据库GateWay" style="shape=mxgraph.cisco.hubs_and_gateways.small_hub;sketch=0;html=1;pointerEvents=1;dashed=0;fillColor=#036897;strokeColor=#ffffff;strokeWidth=2;verticalLabelPosition=bottom;verticalAlign=top;align=center;outlineConnect=0;" vertex="1" parent="1">
          <mxGeometry x="813" y="613" width="120" height="30" as="geometry" />
        </mxCell>
        <mxCell id="f8hAHo9c5CAadVZFo8Ym-2298" value="" style="shape=flexArrow;endArrow=classic;html=1;rounded=0;" edge="1" parent="1" source="f8hAHo9c5CAadVZFo8Ym-2295">
          <mxGeometry width="50" height="50" relative="1" as="geometry">
            <mxPoint x="1103" y="583" as="sourcePoint" />
            <mxPoint x="873" y="713" as="targetPoint" />
          </mxGeometry>
        </mxCell>
        <mxCell id="f8hAHo9c5CAadVZFo8Ym-2300" value="" style="edgeStyle=none;rounded=1;html=1;strokeColor=#23445D;endArrow=none;endFill=0;strokeWidth=4;" edge="1" parent="1" source="f8hAHo9c5CAadVZFo8Ym-2264" target="f8hAHo9c5CAadVZFo8Ym-2299">
          <mxGeometry relative="1" as="geometry">
            <mxPoint x="1287" y="400" as="sourcePoint" />
            <mxPoint x="1407.519230769231" y="650" as="targetPoint" />
          </mxGeometry>
        </mxCell>
        <mxCell id="f8hAHo9c5CAadVZFo8Ym-2299" value="Redis GateWay" style="shape=mxgraph.cisco.hubs_and_gateways.small_hub;sketch=0;html=1;pointerEvents=1;dashed=0;fillColor=#036897;strokeColor=#ffffff;strokeWidth=2;verticalLabelPosition=bottom;verticalAlign=top;align=center;outlineConnect=0;" vertex="1" parent="1">
          <mxGeometry x="1161.5" y="620" width="120" height="30" as="geometry" />
        </mxCell>
        <mxCell id="f8hAHo9c5CAadVZFo8Ym-2302" value="Redis 8节点集群" style="shape=mxgraph.cisco.storage.web_cluster;sketch=0;html=1;pointerEvents=1;dashed=0;fillColor=#036897;strokeColor=#ffffff;strokeWidth=2;verticalLabelPosition=bottom;verticalAlign=top;align=center;outlineConnect=0;" vertex="1" parent="1">
          <mxGeometry x="1121" y="727" width="186" height="106" as="geometry" />
        </mxCell>
        <mxCell id="f8hAHo9c5CAadVZFo8Ym-2303" value="" style="shape=flexArrow;endArrow=classic;html=1;rounded=0;" edge="1" parent="1">
          <mxGeometry width="50" height="50" relative="1" as="geometry">
            <mxPoint x="1217" y="660" as="sourcePoint" />
            <mxPoint x="1216.5" y="728" as="targetPoint" />
          </mxGeometry>
        </mxCell>
        <mxCell id="f8hAHo9c5CAadVZFo8Ym-2306" value="CDN" style="shape=mxgraph.cisco.storage.cloud;sketch=0;html=1;pointerEvents=1;dashed=0;fillColor=#036897;strokeColor=#ffffff;strokeWidth=2;verticalLabelPosition=top;verticalAlign=bottom;align=center;outlineConnect=0;labelPosition=center;" vertex="1" parent="1">
          <mxGeometry x="1501" y="120" width="186" height="106" as="geometry" />
        </mxCell>
        <mxCell id="f8hAHo9c5CAadVZFo8Ym-2307" value="CDN源站" style="shape=mxgraph.cisco.servers.standard_host;sketch=0;html=1;pointerEvents=1;dashed=0;fillColor=#036897;strokeColor=#ffffff;strokeWidth=2;verticalLabelPosition=bottom;verticalAlign=top;align=center;outlineConnect=0;" vertex="1" parent="1">
          <mxGeometry x="1567" y="315" width="60" height="70" as="geometry" />
        </mxCell>
        <mxCell id="f8hAHo9c5CAadVZFo8Ym-2308" style="edgeStyle=none;rounded=1;html=1;strokeColor=#23445D;endArrow=none;endFill=0;strokeWidth=4;entryX=0.5;entryY=0;entryDx=0;entryDy=0;entryPerimeter=0;" edge="1" parent="1" source="f8hAHo9c5CAadVZFo8Ym-2306" target="f8hAHo9c5CAadVZFo8Ym-2307">
          <mxGeometry relative="1" as="geometry">
            <mxPoint x="1471" y="191" as="sourcePoint" />
            <mxPoint x="1648" y="315" as="targetPoint" />
          </mxGeometry>
        </mxCell>
        <mxCell id="f8hAHo9c5CAadVZFo8Ym-2311" value="NFS集群存储" style="shape=mxgraph.cisco.servers.storage_server;sketch=0;html=1;pointerEvents=1;dashed=0;fillColor=#036897;strokeColor=#ffffff;strokeWidth=2;verticalLabelPosition=bottom;verticalAlign=top;align=center;outlineConnect=0;" vertex="1" parent="1">
          <mxGeometry x="1567" y="718.5" width="54" height="83" as="geometry" />
        </mxCell>
        <mxCell id="f8hAHo9c5CAadVZFo8Ym-2313" value="" style="shape=flexArrow;endArrow=classic;html=1;rounded=0;" edge="1" parent="1" source="f8hAHo9c5CAadVZFo8Ym-2312">
          <mxGeometry width="50" height="50" relative="1" as="geometry">
            <mxPoint x="1593.5" y="627" as="sourcePoint" />
            <mxPoint x="1593.5" y="717" as="targetPoint" />
          </mxGeometry>
        </mxCell>
        <mxCell id="f8hAHo9c5CAadVZFo8Ym-2316" style="edgeStyle=none;rounded=1;html=1;strokeColor=#23445D;endArrow=none;endFill=0;strokeWidth=4;exitX=0;exitY=1;exitDx=0;exitDy=0;exitPerimeter=0;" edge="1" parent="1" source="f8hAHo9c5CAadVZFo8Ym-2262" target="f8hAHo9c5CAadVZFo8Ym-2312">
          <mxGeometry relative="1" as="geometry">
            <mxPoint x="1215" y="400" as="sourcePoint" />
            <mxPoint x="1378" y="610" as="targetPoint" />
          </mxGeometry>
        </mxCell>
        <mxCell id="f8hAHo9c5CAadVZFo8Ym-2317" style="edgeStyle=none;rounded=1;html=1;strokeColor=#23445D;endArrow=none;endFill=0;strokeWidth=4;exitX=0.89;exitY=0.91;exitDx=0;exitDy=0;exitPerimeter=0;" edge="1" parent="1" source="f8hAHo9c5CAadVZFo8Ym-2261" target="f8hAHo9c5CAadVZFo8Ym-2312">
          <mxGeometry relative="1" as="geometry">
            <mxPoint x="1405.5" y="360" as="sourcePoint" />
            <mxPoint x="1714" y="590" as="targetPoint" />
          </mxGeometry>
        </mxCell>
        <mxCell id="f8hAHo9c5CAadVZFo8Ym-2318" style="edgeStyle=none;rounded=1;html=1;strokeColor=#23445D;endArrow=none;endFill=0;strokeWidth=4;exitX=0.89;exitY=0.91;exitDx=0;exitDy=0;exitPerimeter=0;" edge="1" parent="1" target="f8hAHo9c5CAadVZFo8Ym-2312">
          <mxGeometry relative="1" as="geometry">
            <mxPoint x="1280" y="384" as="sourcePoint" />
            <mxPoint x="1875" y="600" as="targetPoint" />
          </mxGeometry>
        </mxCell>
        <mxCell id="f8hAHo9c5CAadVZFo8Ym-2319" style="edgeStyle=none;rounded=1;html=1;strokeColor=#23445D;endArrow=none;endFill=0;strokeWidth=4;exitX=0.89;exitY=0.91;exitDx=0;exitDy=0;exitPerimeter=0;" edge="1" parent="1" source="f8hAHo9c5CAadVZFo8Ym-2263" target="f8hAHo9c5CAadVZFo8Ym-2312">
          <mxGeometry relative="1" as="geometry">
            <mxPoint x="1159" y="384" as="sourcePoint" />
            <mxPoint x="1754" y="600" as="targetPoint" />
          </mxGeometry>
        </mxCell>
        <mxCell id="f8hAHo9c5CAadVZFo8Ym-2320" value="" style="shape=flexArrow;endArrow=classic;html=1;rounded=0;" edge="1" parent="1" target="f8hAHo9c5CAadVZFo8Ym-2312">
          <mxGeometry width="50" height="50" relative="1" as="geometry">
            <mxPoint x="1593.5" y="627" as="sourcePoint" />
            <mxPoint x="1593.5" y="717" as="targetPoint" />
          </mxGeometry>
        </mxCell>
        <mxCell id="f8hAHo9c5CAadVZFo8Ym-2312" value="数据库GateWay" style="shape=mxgraph.cisco.hubs_and_gateways.small_hub;sketch=0;html=1;pointerEvents=1;dashed=0;fillColor=#036897;strokeColor=#ffffff;strokeWidth=2;verticalLabelPosition=bottom;verticalAlign=top;align=center;outlineConnect=0;" vertex="1" parent="1">
          <mxGeometry x="1534" y="610" width="120" height="30" as="geometry" />
        </mxCell>
        <mxCell id="f8hAHo9c5CAadVZFo8Ym-2323" style="edgeStyle=none;rounded=1;html=1;strokeColor=#23445D;endArrow=none;endFill=0;strokeWidth=4;" edge="1" parent="1" source="f8hAHo9c5CAadVZFo8Ym-2307" target="f8hAHo9c5CAadVZFo8Ym-2312">
          <mxGeometry relative="1" as="geometry">
            <mxPoint x="1394" y="394" as="sourcePoint" />
            <mxPoint x="1720" y="600" as="targetPoint" />
          </mxGeometry>
        </mxCell>
      </root>
    </mxGraphModel>
  </diagram>
</mxfile>
